<svg xmlns="http://www.w3.org/2000/svg" version="1.1" id="SVGRoot" viewBox="0 0 16 16">
  <g id="layer1">
    <path d="M5.7696 14.5315c-.1996-.0739-.2655-.1182-.4702-.3161-.2597-.2511-.3754-.435-.8158-1.2983-.9818-1.9244-1.9454-3.4902-2.6715-4.3409-.0975-.1143-.1672-.2177-.1547-.2298.0215-.021.7517-.3329.8261-.3529.0604-.0162.5733.4112 1.0603.8835.7815.7578 1.4064 1.4874 1.825 2.131.3888.5974.3003.6173.6778-.1522 1.1883-2.4219 2.8036-4.776 4.595-6.6964.942-1.01 1.8312-1.783 2.8838-2.5068l.3573-.2458.2387.327.2388.3269-.6728.6576c-.819.8006-1.3809 1.4287-2.077 2.3217-1.876 2.4069-3.3509 5.2669-4.1586 8.064-.1548.536-.3252.8786-.5568 1.1196-.3144.3272-.7506.4465-1.1254.3079z" id="path2165" fill="#000" stroke-width=".032"/>
  </g>
</svg>
