<svg xmlns="http://www.w3.org/2000/svg" version="1.1" id="SVGRoot" viewBox="0 0 16 16">
  <g id="layer1">
    <path d="M3.5181 14.3057c-.1553-.0472-.2277-.1032-.2728-.2112-.055-.1317-.0585-.3506-.0079-.4977.0512-.149 1.0639-1.6592 1.4998-2.2368.0997-.132.2503-.348.3348-.48.1459-.228 1.323-1.8724 1.6421-2.294.0825-.109.2186-.2961.3026-.416.084-.12.1985-.2795.2545-.3546.0733-.0984.1012-.1699.1-.256-.001-.0657-.1183-.465-.2606-.8874a176.1562 176.1562 0 01-.5838-1.776c-.3997-1.2396-.7286-2.1742-.7904-2.2459-.1312-.1522-.1753-.5264-.0846-.7176.0285-.0601.096-.1464.15-.1918.089-.0749.1147-.0805.2762-.0607.2172.0267.4511.123.5472.2253.0393.0418.09.145.1125.2294.0369.1381.0836.2849.1811.5693.0182.0528.0651.2184.1044.368.2009.765 1.0304 3.3184 1.1087 3.4127.0623.075.2104-.022.3367-.2207.0419-.066.094-.1203.1158-.1207.0218-.0004.1211-.1264.2207-.28a5.3045 5.3045 0 01.7176-.8855c.107-.1066.2507-.2658.3193-.3538.0686-.088.3345-.376.5909-.64.2563-.264.5256-.5592.5985-.656.0728-.0968.3196-.3516.5485-.5662.4443-.4165.5185-.4564.7641-.4105.0826.0154.1618.066.2544.1624.1378.1436.2408.3847.1815.4248-.3999.2709-1.6044 1.4233-1.8786 1.7974-.071.0969-.3033.3561-.5162.5761-.2129.22-.5798.6376-.8154.928-.2356.2904-.4741.5712-.53.624-.0836.0788-.4204.5295-.5075.679-.0758.1301.5201 1.64 1.118 2.8323.1476.2943.3034.6183.3463.72.0429.1016.1918.3791.331.6167.1942.3315.286.456.3948.5354.353.2576.4774.4291.4776.6587.0001.1867-.028.2434-.2328.4699-.2061.228-.284.2674-.5191.2633-.2772-.0049-.5266-.1458-.6786-.3834-.1637-.256-.2285-.4192-.263-.6632-.0238-.1681-.0843-.3242-.2716-.7005-.3124-.6279-.6523-1.3858-1.0469-2.335-.371-.8925-.3986-.9492-.46-.9492-.0255 0-.0703.0396-.0995.088-.1697.2817-.556.841-.7082 1.0255-.0973.118-.2417.3153-.3209.4385a6.2768 6.2768 0 01-.296.416c-.0836.1056-.2677.3827-.4091.6158-.1414.233-.345.5403-.4523.6828-.1073.1424-.2187.3045-.2475.3602-.0287.0557-.0928.1516-.1423.2132-.1884.2346-.4121.5487-.4121.5788 0 .0445-.1578.3514-.2247.437-.0308.0394-.066.1247-.0782.1896-.0342.1823-.1321.364-.2859.5306-.1316.1426-.1499.1518-.2957.1493-.0855-.0015-.1923-.014-.2374-.0276z" id="path2804" fill="#000" stroke-width=".032"/>
  </g>
</svg>
