<svg xmlns="http://www.w3.org/2000/svg" version="1.1" id="SVGRoot" viewBox="0 0 16 16">
  <g id="layer1">
    <path d="M1.664 14.3662c0-.0865.9396-3.1676.9634-3.1592.0138.005.4862.5305 1.0498 1.168l1.0246 1.159-.2149.0631c-.5323.1564-2.6558.7682-2.7349.7879-.0614.0153-.088.0096-.088-.0188zm2.6635-2.6917L3.2682 10.48 6.842 6.904c1.9657-1.9668 3.5826-3.576 3.5933-3.576.0203 0 2.0868 2.3234 2.1007 2.362.0044.0121-1.6023 1.6324-3.5706 3.6006L5.3868 12.869zm7.8773-7.7625c-.541-.6116-1.0134-1.1454-1.0499-1.1863l-.0664-.0743.39-.383c.3265-.3207.4284-.4007.6275-.4927.4695-.2169.9276-.215 1.3923.0057.8242.3913 1.1444 1.4603.6728 2.2458-.071.1183-.9166.9968-.9594.9968-.0128 0-.4659-.5004-1.0069-1.112z" id="path3443" fill="#000" stroke-width=".032"/>
  </g>
</svg>
