<svg xmlns="http://www.w3.org/2000/svg" version="1.1" id="SVGRoot" viewBox="0 0 16 16">
  <g id="layer1">
    <path d="M5.582 13.8055a4.5024 4.5024 0 01-2.4208-1.1911c-.5754-.5475-.943-1.11-1.1909-1.8223-.4063-1.1674-.3217-2.4876.2295-3.5796.3067-.6074.9342-1.3186 1.5044-1.7048 1.625-1.1007 3.76-1.0597 5.2989.1017.1215.0918.2403.1811.2638.1986.0323.024.159-.083.515-.4344 1.3514-1.3341 2.507-2.205 3.9168-2.9512.2225-.1178.4178-.2142.434-.2142.0301 0 .3293.516.3293.5681 0 .016-.133.1212-.2955.2337-1.228.8496-2.6452 2.1969-3.8574 3.6673l-.136.165.1751.347c.36.713.5088 1.3295.5084 2.107-.0005 1.272-.4859 2.3978-1.4216 3.2972-1.0134.974-2.4562 1.4278-3.853 1.212zm1.5038-.6042c2.2239-.4864 3.609-2.6482 3.0918-4.8258-.1047-.4405-.363-1.0563-.4175-.9952-.063.0706-.3144.4298-.5758.8228-.6406.9629-1.2107 1.9919-1.6514 2.9811-.2278.5112-.3444.6962-.5704.9045-.1982.1827-.3235.2389-.5723.2567-.2762.0197-.4628-.048-.672-.2436-.2373-.222-.3482-.4392-.6482-1.2696-.4721-1.3065-1.0149-2.5959-1.3673-3.248-.177-.3277-.4825-.832-.5035-.8314-.0094.0002-.0904.1046-.1799.232-.4929.701-.7173 1.4197-.7173 2.2971 0 .8408.213 1.5473.6747 2.2383.629.9414 1.6653 1.582 2.8133 1.739.2135.0292 1.073-.0092 1.2958-.058zm-.6068-3.825c.6106-.951 1.6098-2.243 2.2847-2.9543l.1463-.1542-.096-.0808c-.1824-.1534-.6255-.4316-.8563-.5377-1.1057-.5078-2.3319-.486-3.4317.0613-.2288.1139-.5096.2782-.624.3651-.2306.1753-.5585.4806-.5382.501.0072.0072.1377-.0212.29-.0631l.277-.0762.2176.2299c.6857.7243 1.4094 1.76 1.8533 2.6522.1202.2416.2282.4288.24.416.0119-.0128.1186-.1745.2373-.3593z" id="path1452" fill="#407076" stroke-width=".032"/>
  </g>
</svg>
